<svg version="1.1" xmlns="http://www.w3.org/2000/svg" xmlns:xlink="http://www.w3.org/1999/xlink" width="600" height="600" viewBox="0 0 600 600"><defs/><g><rect fill="rgb(254,119,67)" stroke="none" x="0" y="0" width="600" height="600" transform="matrix(1 0 0 1 0 0)" fill-opacity="1"/><path fill="none" stroke="rgb(255,255,255)" paint-order="fill stroke markers" d=" M 0.5 0.5 L 300.5 0.5 L 300.5 300.5 L 0.5 300.5 L 0.5 0.5 Z" stroke-opacity="1" stroke-linecap="round" stroke-miterlimit="10" stroke-dasharray=""/><path fill="none" stroke="rgb(255,255,255)" paint-order="fill stroke markers" d=" M 300.5 0.5 L 600.5 0.5 L 600.5 300.5 L 300.5 300.5 L 300.5 0.5 Z" stroke-opacity="1" stroke-linecap="round" stroke-miterlimit="10" stroke-dasharray=""/><path fill="none" stroke="rgb(255,255,255)" paint-order="fill stroke markers" d=" M 0.5 300.5 L 300.5 300.5 L 300.5 600.5 L 0.5 600.5 L 0.5 300.5 Z" stroke-opacity="1" stroke-linecap="round" stroke-miterlimit="10" stroke-dasharray=""/><path fill="none" stroke="rgb(255,255,255)" paint-order="fill stroke markers" d=" M 300.5 300.5 L 600.5 300.5 L 600.5 600.5 L 300.5 600.5 L 300.5 300.5 Z" stroke-opacity="1" stroke-linecap="round" stroke-miterlimit="10" stroke-dasharray=""/><path fill="none" stroke="rgb(255,255,255)" paint-order="fill stroke markers" d=" M 0.5 0.5 L 150.5 0.5 L 150.5 150.5 L 0.5 150.5 L 0.5 0.5 Z" stroke-opacity="1" stroke-linecap="round" stroke-miterlimit="10" stroke-dasharray=""/><path fill="none" stroke="rgb(255,255,255)" paint-order="fill stroke markers" d=" M 150.5 0.5 L 300.5 0.5 L 300.5 150.5 L 150.5 150.5 L 150.5 0.5 Z" stroke-opacity="1" stroke-linecap="round" stroke-miterlimit="10" stroke-dasharray=""/><path fill="none" stroke="rgb(255,255,255)" paint-order="fill stroke markers" d=" M 0.5 150.5 L 150.5 150.5 L 150.5 300.5 L 0.5 300.5 L 0.5 150.5 Z" stroke-opacity="1" stroke-linecap="round" stroke-miterlimit="10" stroke-dasharray=""/><path fill="none" stroke="rgb(255,255,255)" paint-order="fill stroke markers" d=" M 150.5 150.5 L 300.5 150.5 L 300.5 300.5 L 150.5 300.5 L 150.5 150.5 Z" stroke-opacity="1" stroke-linecap="round" stroke-miterlimit="10" stroke-dasharray=""/><path fill="none" stroke="rgb(255,255,255)" paint-order="fill stroke markers" d=" M 0.5 0.5 L 75.5 0.5 L 75.5 75.5 L 0.5 75.5 L 0.5 0.5 Z" stroke-opacity="1" stroke-linecap="round" stroke-miterlimit="10" stroke-dasharray=""/><path fill="none" stroke="rgb(255,255,255)" paint-order="fill stroke markers" d=" M 75.5 0.5 L 150.5 0.5 L 150.5 75.5 L 75.5 75.5 L 75.5 0.5 Z" stroke-opacity="1" stroke-linecap="round" stroke-miterlimit="10" stroke-dasharray=""/><path fill="none" stroke="rgb(255,255,255)" paint-order="fill stroke markers" d=" M 0.5 75.5 L 75.5 75.5 L 75.5 150.5 L 0.5 150.5 L 0.5 75.5 Z" stroke-opacity="1" stroke-linecap="round" stroke-miterlimit="10" stroke-dasharray=""/><path fill="none" stroke="rgb(255,255,255)" paint-order="fill stroke markers" d=" M 75.5 75.5 L 150.5 75.5 L 150.5 150.5 L 75.5 150.5 L 75.5 75.5 Z" stroke-opacity="1" stroke-linecap="round" stroke-miterlimit="10" stroke-dasharray=""/><path fill="none" stroke="rgb(255,255,255)" paint-order="fill stroke markers" d=" M 0.5 0.5 L 38 0.5 L 38 38 L 0.5 38 L 0.5 0.5 Z" stroke-opacity="1" stroke-linecap="round" stroke-miterlimit="10" stroke-dasharray=""/><path fill="none" stroke="rgb(255,255,255)" paint-order="fill stroke markers" d=" M 38 0.5 L 75.5 0.5 L 75.5 38 L 38 38 L 38 0.5 Z" stroke-opacity="1" stroke-linecap="round" stroke-miterlimit="10" stroke-dasharray=""/><path fill="none" stroke="rgb(255,255,255)" paint-order="fill stroke markers" d=" M 0.5 38 L 38 38 L 38 75.5 L 0.5 75.5 L 0.5 38 Z" stroke-opacity="1" stroke-linecap="round" stroke-miterlimit="10" stroke-dasharray=""/><path fill="none" stroke="rgb(255,255,255)" paint-order="fill stroke markers" d=" M 38 38 L 75.5 38 L 75.5 75.5 L 38 75.5 L 38 38 Z" stroke-opacity="1" stroke-linecap="round" stroke-miterlimit="10" stroke-dasharray=""/><path fill="none" stroke="rgb(255,255,255)" paint-order="fill stroke markers" d=" M 0.5 0.5 L 19.25 0.5 L 19.25 19.25 L 0.5 19.25 L 0.5 0.5 Z" stroke-opacity="1" stroke-linecap="round" stroke-miterlimit="10" stroke-dasharray=""/><path fill="none" stroke="rgb(255,255,255)" paint-order="fill stroke markers" d=" M 19.25 0.5 L 38 0.5 L 38 19.25 L 19.25 19.25 L 19.25 0.5 Z" stroke-opacity="1" stroke-linecap="round" stroke-miterlimit="10" stroke-dasharray=""/><path fill="none" stroke="rgb(255,255,255)" paint-order="fill stroke markers" d=" M 0.5 19.25 L 19.25 19.25 L 19.25 38 L 0.5 38 L 0.5 19.25 Z" stroke-opacity="1" stroke-linecap="round" stroke-miterlimit="10" stroke-dasharray=""/><path fill="none" stroke="rgb(255,255,255)" paint-order="fill stroke markers" d=" M 19.25 19.25 L 38 19.25 L 38 38 L 19.25 38 L 19.25 19.25 Z" stroke-opacity="1" stroke-linecap="round" stroke-miterlimit="10" stroke-dasharray=""/><path fill="none" stroke="rgb(255,255,255)" paint-order="fill stroke markers" d=" M 0.5 0.5 L 9.875 0.5 L 9.875 9.875 L 0.5 9.875 L 0.5 0.5 Z" stroke-opacity="1" stroke-linecap="round" stroke-miterlimit="10" stroke-dasharray=""/><path fill="none" stroke="rgb(255,255,255)" paint-order="fill stroke markers" d=" M 9.875 0.5 L 19.25 0.5 L 19.25 9.875 L 9.875 9.875 L 9.875 0.5 Z" stroke-opacity="1" stroke-linecap="round" stroke-miterlimit="10" stroke-dasharray=""/><path fill="none" stroke="rgb(255,255,255)" paint-order="fill stroke markers" d=" M 0.5 9.875 L 9.875 9.875 L 9.875 19.25 L 0.5 19.25 L 0.5 9.875 Z" stroke-opacity="1" stroke-linecap="round" stroke-miterlimit="10" stroke-dasharray=""/><path fill="none" stroke="rgb(255,255,255)" paint-order="fill stroke markers" d=" M 9.875 9.875 L 19.25 9.875 L 19.25 19.25 L 9.875 19.25 L 9.875 9.875 Z" stroke-opacity="1" stroke-linecap="round" stroke-miterlimit="10" stroke-dasharray=""/><path fill="none" stroke="rgb(255,255,255)" paint-order="fill stroke markers" d=" M 0.5 0.5 L 5.1875 0.5 L 5.1875 5.1875 L 0.5 5.1875 L 0.5 0.5 Z" stroke-opacity="1" stroke-linecap="round" stroke-miterlimit="10" stroke-dasharray=""/><path fill="none" stroke="rgb(255,255,255)" paint-order="fill stroke markers" d=" M 5.1875 0.5 L 9.875 0.5 L 9.875 5.1875 L 5.1875 5.1875 L 5.1875 0.5 Z" stroke-opacity="1" stroke-linecap="round" stroke-miterlimit="10" stroke-dasharray=""/><path fill="none" stroke="rgb(255,255,255)" paint-order="fill stroke markers" d=" M 0.5 5.1875 L 5.1875 5.1875 L 5.1875 9.875 L 0.5 9.875 L 0.5 5.1875 Z" stroke-opacity="1" stroke-linecap="round" stroke-miterlimit="10" stroke-dasharray=""/><path fill="none" stroke="rgb(255,255,255)" paint-order="fill stroke markers" d=" M 5.1875 5.1875 L 9.875 5.1875 L 9.875 9.875 L 5.1875 9.875 L 5.1875 5.1875 Z" stroke-opacity="1" stroke-linecap="round" stroke-miterlimit="10" stroke-dasharray=""/><path fill="none" stroke="rgb(255,255,255)" paint-order="fill stroke markers" d=" M 0.5 0.5 L 2.84375 0.5 L 2.84375 2.84375 L 0.5 2.84375 L 0.5 0.5 Z" stroke-opacity="1" stroke-linecap="round" stroke-miterlimit="10" stroke-dasharray=""/><path fill="none" stroke="rgb(255,255,255)" paint-order="fill stroke markers" d=" M 2.84375 0.5 L 5.1875 0.5 L 5.1875 2.84375 L 2.84375 2.84375 L 2.84375 0.5 Z" stroke-opacity="1" stroke-linecap="round" stroke-miterlimit="10" stroke-dasharray=""/><path fill="none" stroke="rgb(255,255,255)" paint-order="fill stroke markers" d=" M 0.5 2.84375 L 2.84375 2.84375 L 2.84375 5.1875 L 0.5 5.1875 L 0.5 2.84375 Z" stroke-opacity="1" stroke-linecap="round" stroke-miterlimit="10" stroke-dasharray=""/><path fill="none" stroke="rgb(255,255,255)" paint-order="fill stroke markers" d=" M 2.84375 2.84375 L 5.1875 2.84375 L 5.1875 5.1875 L 2.84375 5.1875 L 2.84375 2.84375 Z" stroke-opacity="1" stroke-linecap="round" stroke-miterlimit="10" stroke-dasharray=""/><path fill="none" stroke="rgb(255,255,255)" paint-order="fill stroke markers" d=" M 0.5 0.5 L 1.671875 0.5 L 1.671875 1.671875 L 0.5 1.671875 L 0.5 0.5 Z" stroke-opacity="1" stroke-linecap="round" stroke-miterlimit="10" stroke-dasharray=""/><path fill="none" stroke="rgb(255,255,255)" paint-order="fill stroke markers" d=" M 1.671875 0.5 L 2.84375 0.5 L 2.84375 1.671875 L 1.671875 1.671875 L 1.671875 0.5 Z" stroke-opacity="1" stroke-linecap="round" stroke-miterlimit="10" stroke-dasharray=""/><path fill="none" stroke="rgb(255,255,255)" paint-order="fill stroke markers" d=" M 0.5 1.671875 L 1.671875 1.671875 L 1.671875 2.84375 L 0.5 2.84375 L 0.5 1.671875 Z" stroke-opacity="1" stroke-linecap="round" stroke-miterlimit="10" stroke-dasharray=""/><path fill="none" stroke="rgb(255,255,255)" paint-order="fill stroke markers" d=" M 1.671875 1.671875 L 2.84375 1.671875 L 2.84375 2.84375 L 1.671875 2.84375 L 1.671875 1.671875 Z" stroke-opacity="1" stroke-linecap="round" stroke-miterlimit="10" stroke-dasharray=""/><path fill="none" stroke="rgb(255,255,255)" paint-order="fill stroke markers" d=" M 0.5 0.5 L 1.0859375 0.5 L 1.0859375 1.0859375 L 0.5 1.0859375 L 0.5 0.5 Z" stroke-opacity="1" stroke-linecap="round" stroke-miterlimit="10" stroke-dasharray=""/><path fill="none" stroke="rgb(255,255,255)" paint-order="fill stroke markers" d=" M 1.0859375 0.5 L 1.671875 0.5 L 1.671875 1.0859375 L 1.0859375 1.0859375 L 1.0859375 0.5 Z" stroke-opacity="1" stroke-linecap="round" stroke-miterlimit="10" stroke-dasharray=""/><path fill="none" stroke="rgb(255,255,255)" paint-order="fill stroke markers" d=" M 0.5 1.0859375 L 1.0859375 1.0859375 L 1.0859375 1.671875 L 0.5 1.671875 L 0.5 1.0859375 Z" stroke-opacity="1" stroke-linecap="round" stroke-miterlimit="10" stroke-dasharray=""/><path fill="none" stroke="rgb(255,255,255)" paint-order="fill stroke markers" d=" M 1.0859375 1.0859375 L 1.671875 1.0859375 L 1.671875 1.671875 L 1.0859375 1.671875 L 1.0859375 1.0859375 Z" stroke-opacity="1" stroke-linecap="round" stroke-miterlimit="10" stroke-dasharray=""/></g></svg>